<svg xmlns="http://www.w3.org/2000/svg" viewBox="0 0 500 500" fill="none">
  <!-- Background copied from original mark-charcoal -->
  <rect width="500" height="500" rx="80" fill="#FAFAFA"/>

  <!-- Experimental fork/branch glyph in charcoal -->
  <g transform="translate(250 250) scale(16) translate(-12 -12)">
    <!-- Nodes -->
    <path
      d="M8.75 19.25a3.25 3.25 0 1 1 6.5 0 3.25 3.25 0 0 1-6.5 0ZM15 4.75a3.25 3.25 0 1 1 6.5 0 3.25 3.25 0 0 1-6.5 0Zm-12.5 0a3.25 3.25 0 1 1 6.5 0 3.25 3.25 0 0 1-6.5 0ZM5.75 6.5a1.75 1.75 0 1 0-.001-3.501A1.75 1.75 0 0 0 5.75 6.5ZM12 21a1.75 1.75 0 1 0-.001-3.501A1.75 1.75 0 0 0 12 21Zm6.25-14.5a1.75 1.75 0 1 0-.001-3.501A1.75 1.75 0 0 0 18.25 6.5Z"
      fill="#1A1A1A"
    />
    <!-- Horizontal branch -->
    <path
      d="M6.5 7.75v1A2.25 2.25 0 0 0 8.75 11h6.5a2.25 2.25 0 0 0 2.25-2.25v-1H19v1a3.75 3.75 0 0 1-3.75 3.75h-6.5A3.75 3.75 0 0 1 5 8.75v-1Z"
      fill="#1A1A1A"
    />
    <!-- Vertical stem -->
    <path
      d="M11.25 16.25v-5h1.5v5h-1.5Z"
      fill="#1A1A1A"
    />
  </g>
</svg>

