<svg xmlns="http://www.w3.org/2000/svg" viewBox="0 0 560 140" fill="none">
  <!-- Dark background — iOS-radius -->
  <rect width="560" height="140" rx="28" fill="#1A1A1A"/>

  <!-- Claw mark: 100×100; x=90 brings logo closer to text (tighter spacing) -->
  <g transform="translate(90, 23) scale(0.2)">
    <path d="M 130,375 L 130,225 C 130,145 155,75 160,70 C 165,75 190,145 190,225 L 190,375 Z" fill="#E03E3E"/>
    <path d="M 220,375 L 220,205 C 220,115 245,45 250,40 C 255,45 280,115 280,205 L 280,375 Z" fill="#E03E3E"/>
    <path d="M 310,375 L 310,225 C 310,145 335,75 340,70 C 345,75 370,145 370,225 L 370,375 Z" fill="#E03E3E"/>
    <rect x="80" y="362" width="340" height="68" rx="34" fill="#E03E3E"/>
  </g>

  <style>
    .lk { font-family: 'Inter', -apple-system, 'Segoe UI', 'Helvetica Neue', sans-serif; font-size: 50px; letter-spacing: -0.02em; }
    .lk-r { font-weight: 600; }
    .lk-b { font-weight: 700; }
  </style>
  <!-- Text: x=310 (closer to logo), y=82 vertical -->
  <text x="310" y="82" text-anchor="middle" dominant-baseline="middle" class="lk">
    <tspan class="lk-r" fill="#F5F0EB">effector</tspan><tspan class="lk-b" fill="#E03E3E">HQ</tspan>
  </text>
</svg>
