<svg xmlns="http://www.w3.org/2000/svg" viewBox="0 0 500 500" fill="none">
  <!-- Light background — charcoal mark for print / monochrome use -->
  <rect width="500" height="500" rx="80" fill="#FAFAFA"/>

  <!-- Left prong -->
  <path d="M 130,375 L 130,225 C 130,145 155,75 160,70 C 165,75 190,145 190,225 L 190,375 Z"
        fill="#1A1A1A"/>
  <!-- Center prong -->
  <path d="M 220,375 L 220,205 C 220,115 245,45 250,40 C 255,45 280,115 280,205 L 280,375 Z"
        fill="#1A1A1A"/>
  <!-- Right prong -->
  <path d="M 310,375 L 310,225 C 310,145 335,75 340,70 C 345,75 370,145 370,225 L 370,375 Z"
        fill="#1A1A1A"/>
  <!-- Palm bar -->
  <rect x="80" y="362" width="340" height="68" rx="34" fill="#1A1A1A"/>
</svg>
